<?xml version="1.0" encoding="utf-8"?>
<!-- Generator: Adobe Illustrator 26.0.1, SVG Export Plug-In . SVG Version: 6.00 Build 0)  -->
<svg version="1.1" id="Layer_1" xmlns="http://www.w3.org/2000/svg" xmlns:xlink="http://www.w3.org/1999/xlink" x="0px" y="0px"
	 viewBox="0 0 594.4 317" style="enable-background:new 0 0 594.4 317;" xml:space="preserve">
<style type="text/css">
	.st0{fill:#167BAF;}
	.st1{fill:#F4965C;}
	.st2{fill:#59595B;}
</style>
<image style="display:none;overflow:visible;" width="696" height="406" xlink:href="A14DC70E.jpg"  transform="matrix(1 0 0 1 -72.6675 -43.0686)">
</image>
<g>
	<g>
		<path class="st0" d="M423.1,231.8c-12,0-24,0-36,0c-10.4,0-20.6-1.3-29.9-6.3c-17.4-9.2-28.2-23.4-32-42.7c0-13.5,0-27,0-40.4
			c5.2-24.5,22.9-42,47.2-47.2c4-0.9,8.3-1,12.4-1.1c21-0.1,42-0.2,63,0c6.3,0.1,12.5,1,18.8,1.8c2.5,0.3,2.5,0.8,0.6,2.6
			c-4.2,3.8-8.4,7.5-12.7,11.3c-0.4,0.3-0.9,0.5-1.2,0.9c-3.6,4.8-8.9,5.1-14.3,5.4c-5.8,0.2-11.6,0.6-17.4,1
			c-4.3,0.3-9.5,5.3-10.5,10.1c-0.8,3.6-0.8,3.7-4.5,3.7c-8,0.1-16,0.2-24,0c-9.2-0.3-18.8,7.2-20.9,15.6c-0.3,1.3-0.7,2.6-0.7,3.9
			c-0.1,8.3-0.2,16.7,0,25c0.2,9.4,9.1,18.8,18.2,19.7c4.3,0.4,8.6,0.9,12.9,0.9c12.3,0.1,24.6,0.1,37,0c2.9,0,4.7,0.7,6.4,3.5
			c7.1,12.1,17,21.6,28.6,29.5c0.7,0.5,1.4,0.8,2.1,1.3c0.2,0.2,0.5,0.7,0.4,0.8c-0.2,0.4-0.6,0.8-1,0.8c-1.3,0.1-2.7,0.1-4,0.1
			C448.8,231.8,436,231.8,423.1,231.8C423.1,231.8,423.1,231.8,423.1,231.8z"/>
		<path class="st0" d="M555.3,38.5c4-0.2,7.9-0.8,11.8-1.5c2.5-0.5,4.6-0.5,6.1-0.4c2.8,0.2,6.1,0.3,7.5,2.5c1.2,2,0.3,4.7-0.8,7.4
			c-3.3,7.8-9.3,13.3-16,18.1c-21.1,15-42.5,29.8-63.4,45c-9.2,6.7-19.6,10.6-29.4,16.1c-2.9,1.6-5.9,3-9,4.4
			c-1.8,0.8-2.8,1.9-3,3.9c-0.4,3.1-1.1,6.2-2,9.2c-0.3,1-1.1,2.2-2,2.5c-1.1,0.3-2.2-0.6-2.9-1.2c-3.8-3.2-4.2-6.5-6.6-8.7
			c-1.5-1.5-4.6-1.8-10.8-2.6c0,0-9.8-1.2-15.8-3.1c-0.4-0.1-1.3-0.4-1.9-1.3c-0.1-0.2-0.6-0.9-0.5-1.8c0-0.3,0.2-1.3,1.8-2.6
			c1.9-1.6,3.9-2.1,4.2-2.2c4.2-1.1,8.5-0.8,9.5-0.8c7,0.5,12.3,0.8,17.1-1.1c2.4-1,4.8-2.5,7-4.8c6.8-6.2,16.1-14.6,27.4-24.5
			c13.4-11.8,10.3-8.8,20.8-17.9c6.8-6,16.3-13.4,35.4-28.1c2.1-1.6,6.5-5,13-6C553.6,38.6,554.4,38.5,555.3,38.5z"/>
		<path class="st0" d="M512.5,164.8c-0.6,6.1-0.9,14-2.4,21.6c-2.5,13.1-9.8,23.4-19.8,32c-2.1,1.8-4,1.9-6.4,1.1
			c-8.3-2.7-15.8-7-22.4-12.7c-2.7-2.3-5-4.8-7.4-7.4c-0.9-0.9-1.4-2.1-2.2-3.1c1.3-0.4,2.5-1,3.8-1.1c8.1-0.6,13.4-5.4,17.3-12
			c1.1-1.8,2-4,2.1-6c0.3-8.5,0.5-17,0.4-25.4c-0.1-5.7-2.5-10.6-6.6-14.6c-2.6-2.6-2.6-2.7,0.6-4.3c7.9-3.9,15.8-7.8,23.7-11.8
			c1-0.5,2.1-1,3.1-1.6c3.5-2,4.2-2,6.3,1.6c4.7,7.9,8.4,16.2,8.8,25.6C511.5,152.1,512,157.6,512.5,164.8z"/>
		<path class="st1" d="M594.4,140.8c-0.6,28-10.6,50.3-30.6,67.8c-13.8,12.1-30,18.7-48.3,20.5c-14.5,1.4-25.7-1.1-29.4-2
			c-27.6-6.8-43.4-25.7-46-28.9c-14.9-18.4-17.7-37.9-18.5-45.7c1.8,9.6,6.9,29.3,21.8,45.6c6.3,6.8,12.7,11.3,14.2,12.3
			c7.6,5.2,16.1,9.1,25.4,11.7c6.9,1.9,14.1,2.9,21.2,2.8c11.7-0.2,23.1-2.5,33.8-7.6c23.3-11.3,38.6-29.3,44.3-54.6
			c6-26.6-0.2-50.4-18.7-70.8c-1.9-2.1-3.8-4.2-5.6-6.4c-2.5-3.2-2.4-6.7,0.2-9c2.5-2.3,5.8-2,8.9,0.9
			c14.5,13.8,23.2,30.7,26.1,50.4C593.8,132.5,594.1,137.3,594.4,140.8z"/>
		<path class="st0" d="M502.3,69.4c-6.7,5.7-13.4,11.3-20.1,17c-21.2-1.4-42.9-3.5-65.3-6.2c-5.1-0.6-10.2-1.3-15.3-2
			c0.1-0.6,0.4-1.5,1-2.3c1.5-1.9,3.8-2.2,4.3-2.3C438.7,72.2,470.5,70.8,502.3,69.4z"/>
		<path class="st0" d="M518.9,131.1c-1.5,0.8-3.2,0.1-3.6-1c-0.3-0.8,0-1.7,0.6-2.4c0.8-0.8,1.3-1.8,1.4-2.8c0.4-3.8,0.8-8.7,0.4-13
			c-0.3-3.3-0.7-5.1-1-9.6c-0.1-1-0.1-1.8-0.1-2.4c6.1-4.4,12.1-8.7,18.2-13.1c-1.2,4.9-2,9-2.5,11.7c-2.1,11.1-3.1,16.6-3.2,18.3
			c0,1.9-1.1,4.5-1.6,8c-0.3,2.1-1.8,3.8-3.8,4.4C521.9,129.8,520.1,130.6,518.9,131.1z"/>
		<path class="st1" d="M338.5,33.3c-13-5.7-24.7-9.4-33.9-11.9c-13.3-3.5-23.7-4.9-27.3-5.5c-8.7-1.6-17.5-2-26.3-1.9
			c-10.7,0.1-21.2,1.6-31.6,3.5c-21.2,3.8-40.9,11.5-59.4,22.4c-11.8,6.9-23.1,14.5-33.1,23.9c-5.7,5.4-11.6,10.5-17,16.2
			C97,93.2,85.9,108,76.5,123.9c-6.9,11.8-13.4,23.8-18.5,36.5c-1,2.4-1.5,2.6-3.6,1.1c-4.8-3.3-9.5-6.7-14.2-10.2
			c-3.2-2.4-6.5-4.8-9.7-7.2l-3.2-2.4c-2.9-2.1-5.7-4.3-8.6-6.4l-0.8-0.6L3.6,124.1l-3.4-2.5v-3.9c-0.1-0.9-0.2-1.8-0.2-2.8
			C0.4,88.9,0.2,63,0.2,37.1V24h38.9v88.8c0,1.3,0,2.7,0.1,4c0,0.4,0.3,0.8,0.5,1.2c0.4-0.3,0.9-0.5,1.1-0.8
			c1.1-2.2,2.2-4.5,3.2-6.7c10.5-21.9,25.1-40.7,43.1-57c20.2-18.3,43.4-31.8,69.1-41c9.4-3.3,19-6.1,28.7-8.2
			c8.2-1.8,16.7-2.7,25.1-3.4c7.9-0.7,16-1.2,23.9-0.9c9.9,0.5,19.9,1.4,29.7,3c10.7,1.8,18.9,4.2,22.7,5.3
			c18,5.3,30.5,11.8,33,13.1C327.3,25.8,333.7,29.9,338.5,33.3z"/>
		<polygon class="st1" points="61,231.9 0.3,231.9 0.3,182 		"/>
		<polygon class="st0" points="134.2,231.9 76.9,231.9 0.3,171.6 0.3,129.2 		"/>
		<path class="st0" d="M256.6,209.6l-33-58l0,0c-5.6-9.9-11.2-19.8-16.8-29.7l-2.5-4.4c-2.3-4.1-4.6-8.1-6.9-12.2
			c-4.2-7.4-10.2-11.1-18.6-11.2c-8.8-0.1-17.7-0.1-26.5,0c-7.1,0.1-12.9,2.9-16.7,9.1c-2.5,4.1-4.9,8.3-7.3,12.5
			c-9.8,17.4-19.6,34.8-29.5,52.1c-1.5,2.7-3.1,5.4-4.6,8.1l-5,8.6c0,0.1-0.1,0.1-0.1,0.2l-1.1,2l1.6,1.2l0,0l4.9,3.6l8.2,6
			l13.5,9.9l1.6,1.2l1-1.8l1.8-3.2l1.4-2.5l3.8-6.7l1.2,1.8l0.2,0.3c0.3,0.4,0.6,0.9,0.9,1.3l0,0c0.2,0.3,0.5,0.7,0.7,1l1.1,1.6
			l3.6,5.1l0.9,1.3h7.8c6.2-0.1,12.5,0,18.7,0c15.3,0,50.9,0,50.9,0s1.2,2.2,3.3,5.8c2.1,3.5,3.5,5.9,5.7,9.5c3,4.8,7.1,8.4,13.1,9
			c4,0.4,7.9,0.6,11.9,0.8h23.1L256.6,209.6z M191.7,177.7c-0.5,0-1,0-1.5,0v0h-29.9c-6.8,0-13.5,0-20.3,0c-4.1,0-4.3-0.3-2.4-3.8
			c3.1-5.7,6.4-11.3,9.6-16.9c5.5-9.7,11-19.4,16.5-29c0.5-0.9,1.4-1.7,2.1-2.6c0.7,0.9,1.5,1.8,2,2.8c8.7,15.2,17.3,30.3,25.9,45.5
			C195.7,177.2,195.6,177.4,191.7,177.7z"/>
		<path class="st0" d="M314.2,231.8C314.2,231.8,314.2,231.8,314.2,231.8c-11.3,0-22.7-0.1-34,0h-4.3l-1.3-2.3l-19.4-34L242.4,173
			l-5.8-10.2l-0.1-0.1l-2.4-4.2v-21.7c0.1-6.9,0.1-13.9-0.1-20.8c0-2.5-0.1-5.1-0.2-7.6c0-0.2,0-0.4,0-0.5c0-6.9,4.2-13.1,12.8-13.7
			c1.9-0.1,3.8-0.2,5.8-0.2h16.9v29.5c0,6.6,0,13.2,0,19.8c0,6.8,0,13.5,0,20.3v32.3h2.5c0.1,0,0.3,0,0.5,0c1.3,0,2.7,0,4,0
			c8.2,0,28.3,0,46.5,0c5.8,15.1,16.4,26.9,31.7,34.9c0.6,0.3,1.3,0.7,1.9,1H314.2z"/>
	</g>
	<g>
		<path class="st2" d="M49.2,254.4c1.2,0,1.8,0.6,1.8,1.8v7.6c0,1.2-0.5,1.8-1.8,1.8H19.7c-5.9,0-7.3,1.5-7.3,8.2h36.4
			c1.2,0,1.8,0.6,1.8,1.8v6.3c0,1.2-0.5,1.8-1.8,1.8H12.4v16.6c0,1.2-0.6,1.8-1.8,1.8H1.8c-1.2,0-1.8-0.6-1.8-1.8v-27.9
			c0-13.1,5.3-18,19.2-18H49.2z"/>
		<path class="st2" d="M120.5,251c1.2,0,1.8,0.6,1.8,1.8v47.5c0,1.2-0.6,1.8-1.8,1.8h-7.9c-1.2,0-1.8-0.6-1.8-1.8v-47.5
			c0-1.2,0.5-1.8,1.8-1.8H120.5z"/>
		<path class="st2" d="M234.2,264.2c1.1,0,1.6,1,1.1,2L210.9,312c-1.8,3.5-5.3,5-11.8,5h-5.2c-1,0-1.4-0.5-1.4-1.4V309
			c0-1,0.5-1.4,1.4-1.4h4.4c1.6,0,2.6-0.4,3.1-1.4l3-5.6c-2.9-0.1-4.4-1.2-5.6-3.5l-16.8-30.9c-0.5-1-0.1-2,1.1-2h9.3
			c1,0,1.5,0.3,1.8,1l13,24.5c0.7,1.3,1,1.8,2,1.9l14.2-26.4c0.3-0.7,0.9-1,1.8-1H234.2z"/>
		<path class="st2" d="M304.9,250c1.2,0,1.8,0.6,1.8,1.8v6.7c0,1.2-0.6,1.8-1.8,1.8h-8c-1.2,0-1.8-0.5-1.8-1.8v-6.7
			c0-1.2,0.6-1.8,1.8-1.8H304.9z M304.8,264.2c1.2,0,1.8,0.5,1.8,1.8v34.3c0,1.2-0.6,1.8-1.8,1.8h-7.9c-1.2,0-1.8-0.6-1.8-1.8V266
			c0-1.2,0.5-1.8,1.8-1.8H304.8z"/>
		<path class="st2" d="M402.6,264.2c12.4,0,16.3,3.9,16.3,13.9v22.1c0,1.2-0.6,1.8-1.8,1.8h-8c-1.2,0-1.8-0.6-1.8-1.8v-19.3
			c0-5.1-0.6-6.5-5.5-6.5h-17.9c-4.9,0-6.1,1.4-6.1,6.5v19.3c0,1.2-0.6,1.8-1.8,1.8h-8c-1.2,0-1.8-0.6-1.8-1.8v-22.1
			c0-10,4-13.9,16.4-13.9H402.6z"/>
		<path class="st2" d="M493.6,264.2c12.4,0,16.3,3.9,16.3,13.9v25c0,10.1-3.9,14-16.3,14h-32.2c-1,0-1.4-0.5-1.4-1.4v-6.8
			c0-1,0.5-1.4,1.4-1.4h31.1c4.9,0,6-1.4,6-6.6v-1.7h-24.1c-12.4,0-16.4-4-16.4-14.1v-6.8c0-10.1,4-14,16.4-14H493.6z M475.5,290.2
			h22.9v-11.1c0-4.1-1.1-5.5-6-5.5h-16.9c-4.9,0-6.1,1.4-6.1,5.2v6.1C469.5,288.7,470.6,290.2,475.5,290.2z"/>
	</g>
</g>
</svg>
